<?xml version="1.0" encoding="utf-8"?>
<!-- Generator: Adobe Illustrator 24.3.0, SVG Export Plug-In . SVG Version: 6.00 Build 0)  -->
<svg version="1.1" id="Layer_1" xmlns="http://www.w3.org/2000/svg" xmlns:xlink="http://www.w3.org/1999/xlink" x="0px" y="0px"
	 viewBox="0 0 100 100" style="enable-background:new 0 0 100 100;" xml:space="preserve">
<style type="text/css">
	.st0{fill:url(#SVGID_1_);}
	.st1{fill:#FFFFFF;}
	.st2{fill:url(#SVGID_2_);}
	.st3{fill:#646464;}
	.st4{fill:url(#SVGID_3_);}
</style>
<linearGradient id="SVGID_1_" gradientUnits="userSpaceOnUse" x1="49.9609" y1="87.9561" x2="47.6939" y2="7.2335">
	<stop  offset="0" style="stop-color:#646464"/>
	<stop  offset="0.4088" style="stop-color:#A8A8A8"/>
	<stop  offset="0.81" style="stop-color:#E5E5E5"/>
	<stop  offset="1" style="stop-color:#FDFDFD"/>
</linearGradient>
<path class="st0" d="M33.07,51.25L9.62,89.35L50,10.65l40.38,78.7L50,25.41L33.07,51.25z M46.35,50.43L50,46.57l40.38,42.78
	L66.36,56.63L50,33.99L33.64,56.63L9.62,89.35l31.54-33.42l22.04,17.05c0.69,0.54,1.42,1.03,2.17,1.48l25,14.89L46.35,50.43z
	 M49.2,66.17l-6.71-5.57L9.62,89.35L35.4,74.17L49.2,66.17z M34.59,74.65L50,75.91l15.38-1.45L50,74.65H34.59z M34.59,74.65
	L50,78.71l15.38-4.25L50,77.45L34.59,74.65z M34.59,74.65L50,81.42l15.38-6.97L50,80.16L34.59,74.65z"/>
</svg>
